<?xml version="1.0" encoding="utf-8"?>
<!-- Generator: Adobe Illustrator 22.0.0, SVG Export Plug-In . SVG Version: 6.00 Build 0)  -->
<!DOCTYPE svg PUBLIC "-//W3C//DTD SVG 1.1//EN" "http://www.w3.org/Graphics/SVG/1.1/DTD/svg11.dtd">
<svg version="1.1" id="Layer_1" xmlns="http://www.w3.org/2000/svg" xmlns:xlink="http://www.w3.org/1999/xlink" x="0px" y="0px"
	 viewBox="0 0 170 112.5" style="enable-background:new 0 0 170 112.5;" xml:space="preserve">
<style type="text/css">
	.st0{fill:#FFFFFF;}
	.st1{fill:#EF3E33;}
	.st2{fill:#004FA3;}
</style>
<g>
	<polygon class="st0" points="170,112.5 170,-1.5 0,-1.5 0,112.5 	"/>
	<polygon class="st1" points="170,25.2 170,15.9 81.6,15.9 81.6,25.2 	"/>
	<polygon class="st1" points="170,42.6 170,33.2 81.6,33.2 81.6,42.6 	"/>
	<polygon class="st1" points="170,60 170,50.6 81.6,50.6 81.6,60 	"/>
	<polygon class="st1" points="170,7.8 170,-1.5 81.6,-1.5 81.6,7.8 	"/>
	<polygon class="st2" points="81.5,60 81.5,-1.5 0.2,-1.5 0.2,60 	"/>
	<polygon class="st1" points="170,77.7 170,68.3 0,68.3 0,77.7 	"/>
	<polygon class="st1" points="170,95.1 170,85.7 0,85.7 0,95.1 	"/>
	<polygon class="st1" points="170,112.5 170,103.1 0,103.1 0,112.5 	"/>
	<polygon class="st0" points="74.5,32.6 75.2,29.7 73.2,27.9 75.8,27.9 76.6,25 77.3,27.9 79.8,27.9 77.8,29.7 78.5,32.6 76.6,30.8 
			"/>
	<polygon class="st0" points="74.5,45.1 75.2,42.2 73.2,40.4 75.8,40.4 76.6,37.4 77.3,40.4 79.8,40.4 77.8,42.2 78.5,45.1 
		76.6,43.3 	"/>
	<polygon class="st0" points="74.7,57.5 75.5,54.7 73.4,52.8 75.9,52.8 76.7,49.9 77.4,52.8 80,52.8 78,54.7 78.8,57.5 76.7,55.7 	
		"/>
	<polygon class="st0" points="3.9,8.1 4.7,5.2 2.7,3.4 5.2,3.4 6,0.5 6.8,3.4 9.2,3.4 7.2,5.2 8,8.1 6,6.3 	"/>
	<polygon class="st0" points="4.2,20.6 4.9,17.6 2.9,15.9 5.4,15.9 6.1,12.9 6.9,15.9 9.4,15.9 7.4,17.6 8.2,20.6 6.1,18.8 	"/>
	<polygon class="st0" points="4.3,33.1 5,30.1 3.1,28.4 5.6,28.4 6.4,25.4 7.1,28.4 9.6,28.4 7.6,30.1 8.3,33.1 6.4,31.3 	"/>
	<polygon class="st0" points="4.3,45.6 5,42.6 3.1,40.8 5.6,40.8 6.4,37.9 7.1,40.8 9.6,40.8 7.6,42.6 8.3,45.6 6.4,43.7 	"/>
	<polygon class="st0" points="4.5,57.9 5.3,55.1 3.2,53.3 5.7,53.3 6.5,50.3 7.2,53.3 9.8,53.3 7.8,55.1 8.6,57.9 6.5,56.2 	"/>
	<polygon class="st0" points="11,14.5 11.8,11.7 9.8,9.8 12.3,9.8 13.1,6.9 13.9,9.8 16.4,9.8 14.3,11.7 15.1,14.5 13.1,12.7 	"/>
	<polygon class="st0" points="11.3,26.8 12,23.9 10,22.1 12.4,22.1 13.2,19.2 14,22.1 16.5,22.1 14.5,23.9 15.3,26.8 13.2,25 	"/>
	<polygon class="st0" points="11.3,39.7 12,36.9 10,35 12.4,35 13.2,32.1 14,35 16.5,35 14.5,36.9 15.3,39.7 13.2,37.9 	"/>
	<polygon class="st0" points="11,52.7 11.8,49.9 9.8,48 12.3,48 13.1,45 13.9,48 16.4,48 14.3,49.9 15.1,52.7 13.1,50.9 	"/>
	<polygon class="st0" points="18.1,7.9 18.9,5 16.9,3.2 19.4,3.2 20.1,0.3 20.9,3.2 23.5,3.2 21.5,5 22.2,7.9 20.1,6.1 	"/>
	<polygon class="st0" points="18.3,20.4 19.1,17.4 17.1,15.7 19.6,15.7 20.4,12.7 21.2,15.7 23.6,15.7 21.6,17.4 22.4,20.4 
		20.4,18.6 	"/>
	<polygon class="st0" points="18.5,32.8 19.4,29.9 17.2,28.1 19.8,28.1 20.5,25.2 21.3,28.1 23.8,28.1 21.8,29.9 22.6,32.8 20.5,31 
			"/>
	<polygon class="st0" points="18.5,45.3 19.4,42.3 17.2,40.6 19.8,40.6 20.5,37.7 21.3,40.6 23.8,40.6 21.8,42.3 22.6,45.3 
		20.5,43.6 	"/>
	<polygon class="st0" points="18.7,57.7 19.5,54.9 17.5,53 19.9,53 20.8,50.1 21.5,53 24,53 22,54.9 22.7,57.7 20.8,55.9 	"/>
	<polygon class="st0" points="25.3,14.4 26.1,11.5 24,9.6 26.5,9.6 27.3,6.8 28,9.6 30.6,9.6 28.6,11.5 29.4,14.4 27.3,12.5 	"/>
	<polygon class="st0" points="25.4,26.6 26.2,23.7 24.2,21.9 26.7,21.9 27.5,19 28.3,21.9 30.8,21.9 28.7,23.7 29.5,26.6 27.5,24.8 
			"/>
	<polygon class="st0" points="25.4,39.6 26.2,36.7 24.2,34.8 26.7,34.8 27.5,31.9 28.3,34.8 30.8,34.8 28.7,36.7 29.5,39.6 
		27.5,37.7 	"/>
	<polygon class="st0" points="25.3,52.4 26.1,49.6 24,47.7 26.5,47.7 27.3,44.8 28,47.7 30.6,47.7 28.6,49.6 29.4,52.4 27.3,50.7 	
		"/>
	<polygon class="st0" points="32.3,7.7 33.1,4.8 31.1,3 33.7,3 34.4,0 35.2,3 37.7,3 35.7,4.8 36.4,7.7 34.4,5.9 	"/>
	<polygon class="st0" points="32.6,20.1 33.3,17.2 31.2,15.4 33.8,15.4 34.6,12.5 35.3,15.4 37.9,15.4 35.8,17.2 36.6,20.1 
		34.6,18.4 	"/>
	<polygon class="st0" points="32.7,32.6 33.5,29.7 31.5,27.9 34,27.9 34.7,25 35.5,27.9 38.1,27.9 36,29.7 36.8,32.6 34.7,30.8 	"/>
	<polygon class="st0" points="32.7,45.1 33.5,42.2 31.5,40.4 34,40.4 34.7,37.4 35.5,40.4 38.1,40.4 36,42.2 36.8,45.1 34.7,43.3 	
		"/>
	<polygon class="st0" points="32.9,57.5 33.7,54.7 31.6,52.8 34.2,52.8 34.9,49.9 35.7,52.8 38.2,52.8 36.2,54.7 37,57.5 34.9,55.7 
			"/>
	<polygon class="st0" points="39.5,14.2 40.2,11.2 38.2,9.4 40.8,9.4 41.6,6.6 42.3,9.4 44.8,9.4 42.8,11.2 43.6,14.2 41.6,12.3 	
		"/>
	<polygon class="st0" points="39.7,26.4 40.5,23.5 38.4,21.7 40.9,21.7 41.7,18.8 42.5,21.7 45,21.7 43,23.5 43.8,26.4 41.7,24.5 	
		"/>
	<polygon class="st0" points="39.7,39.4 40.5,36.4 38.4,34.6 40.9,34.6 41.7,31.7 42.5,34.6 45,34.6 43,36.4 43.8,39.4 41.7,37.5 	
		"/>
	<polygon class="st0" points="39.5,52.3 40.2,49.3 38.2,47.5 40.8,47.5 41.6,44.7 42.3,47.5 44.8,47.5 42.8,49.3 43.6,52.3 
		41.6,50.4 	"/>
	<polygon class="st0" points="46.6,7.4 47.4,4.5 45.3,2.7 47.9,2.7 48.6,-0.2 49.4,2.7 51.9,2.7 49.9,4.5 50.7,7.4 48.6,5.6 	"/>
	<polygon class="st0" points="46.8,19.9 47.5,17 45.5,15.2 48,15.2 48.8,12.2 49.6,15.2 52.1,15.2 50.1,17 50.8,19.9 48.8,18.1 	"/>
	<polygon class="st0" points="46.9,32.4 47.7,29.6 45.7,27.7 48.2,27.7 49,24.8 49.7,27.7 52.3,27.7 50.3,29.6 51,32.4 49,30.6 	"/>
	<polygon class="st0" points="46.9,44.8 47.7,42 45.7,40.1 48.2,40.1 49,37.2 49.7,40.1 52.3,40.1 50.3,42 51,44.8 49,43.1 	"/>
	<polygon class="st0" points="47.1,57.3 47.9,54.5 45.9,52.6 48.4,52.6 49.2,49.8 49.9,52.6 52.5,52.6 50.4,54.5 51.2,57.3 
		49.2,55.5 	"/>
	<polygon class="st0" points="53.8,14 54.5,11 52.5,9.2 54.9,9.2 55.7,6.3 56.5,9.2 59,9.2 57,11 57.8,14 55.7,12.1 	"/>
	<polygon class="st0" points="53.9,26.2 54.7,23.3 52.7,21.4 55.2,21.4 56,18.5 56.7,21.4 59.2,21.4 57.1,23.3 58,26.2 56,24.4 	"/>
	<polygon class="st0" points="53.9,39.1 54.7,36.2 52.7,34.4 55.2,34.4 56,31.5 56.7,34.4 59.2,34.4 57.1,36.2 58,39.1 56,37.2 	"/>
	<polygon class="st0" points="53.8,52.1 54.5,49.1 52.5,47.3 54.9,47.3 55.7,44.4 56.5,47.3 59,47.3 57,49.1 57.8,52.1 55.7,50.2 	
		"/>
	<polygon class="st0" points="74.1,7.7 74.9,4.8 72.9,3 75.4,3 76.2,0 77,3 79.4,3 77.4,4.8 78.2,7.7 76.2,5.9 	"/>
	<polygon class="st0" points="74.3,20.1 75.1,17.2 73,15.4 75.6,15.4 76.3,12.5 77.1,15.4 79.6,15.4 77.6,17.2 78.4,20.1 76.3,18.4 
			"/>
	<polygon class="st0" points="60.8,7.2 61.6,4.3 59.6,2.5 62,2.5 62.8,-0.4 63.7,2.5 66.1,2.5 64.1,4.3 64.9,7.2 62.8,5.4 	"/>
	<polygon class="st0" points="61,19.6 61.8,16.8 59.7,14.9 62.3,14.9 63,12 63.8,14.9 66.3,14.9 64.2,16.8 65.1,19.6 63,17.9 	"/>
	<polygon class="st0" points="61.2,32.2 61.9,29.3 59.9,27.5 62.4,27.5 63.3,24.5 64,27.5 66.5,27.5 64.5,29.3 65.2,32.2 63.3,30.4 
			"/>
	<polygon class="st0" points="61.2,44.7 61.9,41.8 59.9,39.9 62.4,39.9 63.3,37.1 64,39.9 66.5,39.9 64.5,41.8 65.2,44.7 63.3,42.9 
			"/>
	<polygon class="st0" points="61.4,57.1 62.2,54.3 60.1,52.4 62.6,52.4 63.4,49.5 64.1,52.4 66.7,52.4 64.7,54.3 65.5,57.1 
		63.4,55.3 	"/>
	<polygon class="st0" points="67.9,13.7 68.7,10.8 66.7,9 69.2,9 70,6 70.8,9 73.3,9 71.2,10.8 71.9,13.7 70,11.9 	"/>
	<polygon class="st0" points="68.1,26 68.9,23.1 66.9,21.2 69.3,21.2 70.1,18.3 70.9,21.2 73.4,21.2 71.4,23.1 72.2,26 70.1,24.1 	
		"/>
	<polygon class="st0" points="68.1,38.9 68.9,36 66.9,34.2 69.3,34.2 70.1,31.3 70.9,34.2 73.4,34.2 71.4,36 72.2,38.9 70.1,37.1 	
		"/>
	<polygon class="st0" points="67.9,51.8 68.7,48.9 66.7,47.1 69.2,47.1 70,44.1 70.8,47.1 73.3,47.1 71.2,48.9 71.9,51.8 70,50 	"/>
</g>
</svg>
